# xmcd
#
# Track frame offsets:
#   150
#   22454
#   48081
#   63057
#   79046
#   100630
#   115647
#   134311
#   146712
#   164772
#   189204
#   207713
#   228092
#   246577
#   259082
#   275909
#   294276
#   311668
#   327747
#
# Disc length: 4667 seconds
#
# Revision: 0
# Processed by: cddbd v1.5.1PL0 Copyright (c) Steve Scherf et al.
# Submitted via: Media_Universe 3.0
#
DISCID=20123913
DTITLE=Mixed Country - Mixed Country
DYEAR=1900
DGENRE=Country
TTITLE0=My Wild Frontier
TTITLE1=Somewhere Down The Road
TTITLE2=You're Still Here
TTITLE3=Just To See You Smile
TTITLE4=Live Like You Were Dying
TTITLE5=Check Yes Or No
TTITLE6=Desperately
TTITLE7=Do You Wanna Make Something Of It
TTITLE8=Long Black Train
TTITLE9=Anything But Mine
TTITLE10=Keeper Of The Stars
TTITLE11=Please Come To Boston
TTITLE12=There Goes My Life
TTITLE13=Don't Waste My Time
TTITLE14=Everything Changes
TTITLE15=God Bless Texas
TTITLE16=Let's Be Us Again
TTITLE17=On My Front Porch Looking In
TTITLE18=Smooth
EXTD=
EXTT0=
EXTT1=
EXTT2=
EXTT3=
EXTT4=
EXTT5=
EXTT6=
EXTT7=
EXTT8=
EXTT9=
EXTT10=
EXTT11=
EXTT12=
EXTT13=
EXTT14=
EXTT15=
EXTT16=
EXTT17=
EXTT18=
PLAYORDER=
